<?xml version="1.0" encoding="UTF-8" standalone="no"?>
<!DOCTYPE svg PUBLIC "-//W3C//DTD SVG 1.1//EN" "http://www.w3.org/Graphics/SVG/1.1/DTD/svg11.dtd">
<svg width="100%" height="100%" viewBox="0 0 260 260" version="1.1" xmlns="http://www.w3.org/2000/svg" xmlns:xlink="http://www.w3.org/1999/xlink" xml:space="preserve" xmlns:serif="http://www.serif.com/" style="fill-rule:evenodd;clip-rule:evenodd;stroke-linejoin:round;stroke-miterlimit:2;">
    <g transform="matrix(1.41999,0,-3.20475e-32,1.45746,-49.5409,-58.339)">
        <g transform="matrix(0.70423,0,1.5485e-32,0.686125,34.8882,40.0279)">
            <path d="M240.001,85.001L20.209,85.001L20,175.042L240.001,175.042L240.001,85.001Z" style="fill:rgb(255,240,220);"/>
        </g>
        <path d="M208.129,94.232L203.904,98.349L48.973,98.349L48.973,160.128L44.748,164.217L44.748,94.232" style="fill:rgb(202,243,255);"/>
        <path d="M208.129,94.232L203.904,98.349L203.904,160.128L48.973,160.128L44.748,164.217L208.129,164.217" style="fill:rgb(255,203,210);"/>
        <path d="M217.988,92.107C217.988,89.522 216.024,87.097 215.738,86.818L208.129,94.232L208.129,164.217L44.748,164.217L37.138,171.631C37.384,171.989 39.857,173.823 42.566,173.823L210.31,173.823C214.548,173.823 217.988,170.471 217.988,166.342L217.988,92.107Z" style="fill:rgb(225,140,150);"/>
        <path d="M208.129,94.232L215.738,86.818C215.449,86.532 213.306,84.626 210.31,84.626C42.566,84.626 42.566,84.626 42.566,84.626C38.329,84.626 34.888,87.978 34.888,92.107L34.888,166.12C34.888,168.715 36.803,171.35 37.138,171.631L44.748,164.217L44.748,94.232L208.129,94.232Z" style="fill:rgb(140,205,225);"/>
    </g>
    <g transform="matrix(1.42104,0,0,1.42104,-52.4308,-54.7346)">
        <g transform="matrix(1,0,0,1.00399,118.93,-0.618501)">
            <g transform="matrix(0.70371,0,0,0.700913,-82.0339,38.9802)">
                <path d="M207.819,152.146L207.819,94.475C207.819,93.506 206.884,92.475 205.843,92.475L197.317,92.475C194.475,92.475 192.488,94.475 192.488,97.317L192.488,162.685C192.488,165.527 194.475,167.527 197.317,167.527L227.159,167.527C230.001,167.527 231.988,165.527 231.988,162.685L231.988,154.158C231.988,153.13 230.963,152.146 230.001,152.146L207.819,152.146ZM205.843,154.158L205.843,94.475L197.317,94.475C195.748,94.475 194.475,95.748 194.475,97.317L194.475,162.685C194.475,164.547 195.648,165.527 197.317,165.527L227.159,165.527C228.728,165.527 230.001,164.253 230.001,162.685L230.001,154.158L205.843,154.158Z" style="fill:rgb(218,213,197);"/>
            </g>
            <g transform="matrix(1,0,0,0.996026,0,0.616043)">
                <path d="M62.82,147L62.82,105L56.82,105C55.716,105 54.82,105.896 54.82,107L54.82,153C54.82,154.31 55.645,155 56.82,155L77.82,155C78.924,155 79.82,154.104 79.82,153L79.82,147L62.82,147Z" style="fill:rgb(59,98,99);"/>
            </g>
        </g>
        <g transform="matrix(1,0,0,1,79.0976,1.13687e-13)">
            <path d="M62.82,105L56.82,105C55.716,105 54.82,105.896 54.82,107L54.82,153C54.82,154.104 55.716,155 56.82,155L62.82,155L62.82,139.821L77.414,154.415C78.194,155.195 79.462,155.195 80.242,154.415L84.485,150.172L70.869,136.556C77.365,135.541 83.656,132.168 83.656,121C83.656,105 70.742,105 62.82,105ZM62.82,114L62.82,128.507L63.312,128.999C72.824,128.998 76.73,128.866 76.73,121C76.73,114 72.697,114 62.82,114Z" style="fill:rgb(59,98,99);"/>
            <path d="M62.82,103.593L56.82,103.593C54.939,103.593 53.413,105.119 53.413,107L53.413,153C53.413,154.881 54.939,156.407 56.82,156.407L62.82,156.407C63.597,156.407 64.227,155.777 64.227,155L64.227,143.219L76.419,155.41C77.748,156.74 79.908,156.74 81.237,155.41L85.48,151.167C86.03,150.618 86.03,149.726 85.48,149.177L73.701,137.398C76.296,136.698 78.738,135.521 80.69,133.584C83.285,131.01 85.063,127.077 85.063,121C85.063,115.798 83.756,112.17 81.761,109.62C79.401,106.605 76.045,105.063 72.498,104.309C69.169,103.602 65.679,103.593 62.82,103.593ZM62.82,105L56.82,105C55.716,105 54.82,105.896 54.82,107L54.82,153C54.82,154.104 55.716,155 56.82,155L62.82,155L62.82,139.821L77.414,154.415C78.194,155.195 79.462,155.195 80.242,154.415L84.485,150.172L70.869,136.556C77.365,135.541 83.656,132.168 83.656,121C83.656,105 70.742,105 62.82,105ZM62.82,114L62.82,128.507L63.312,128.999C72.824,128.998 76.73,128.866 76.73,121C76.73,114 72.697,114 62.82,114ZM64.227,127.591L64.227,115.408C67.375,115.411 69.842,115.448 71.702,115.827C72.95,116.082 73.881,116.468 74.468,117.248C75.097,118.084 75.323,119.294 75.323,121C75.323,123.01 75.082,124.44 74.444,125.439C73.769,126.496 72.634,126.961 71.068,127.238C69.291,127.552 67.028,127.587 64.227,127.591Z" style="fill:rgb(59,99,99);fill-opacity:0.19;"/>
        </g>
        <g transform="matrix(1,0,0,1,40.5076,1.13687e-13)">
            <path d="M65.385,145.659L63,155L57,155C55.896,155 55,154.104 55,153L66.742,109C67.54,106.186 68.535,105 70.742,105C71.116,105 71.417,105.06 71.668,105.173C72.913,105.335 74.034,106.499 74.742,109L87.019,155L80.146,155C79.019,155 78.196,153.869 77.963,152.957L76.1,145.659L65.385,145.659ZM70.742,124.67L67.42,137.685L74.065,137.685L70.742,124.67Z" style="fill:rgb(59,98,99);"/>
            <path d="M75.021,110.045L76.102,108.637L88.378,154.637C88.491,155.06 88.401,155.511 88.135,155.857C87.868,156.204 87.456,156.407 87.019,156.407L80.146,156.407C78.37,156.407 76.966,154.742 76.6,153.305L75.007,147.066L66.478,147.066L64.364,155.348C64.205,155.971 63.643,156.407 63,156.407L57,156.407C55.119,156.407 53.593,154.881 53.593,153C53.593,152.877 53.609,152.755 53.64,152.637L65.383,108.637C65.384,108.63 65.386,108.623 65.388,108.616C65.979,106.53 66.744,105.216 67.782,104.46C68.562,103.892 69.512,103.593 70.742,103.593C71.257,103.593 71.685,103.674 72.048,103.809C73.617,104.102 75.205,105.469 76.097,108.616L75.02,110.04L74.742,109C74.034,106.499 72.913,105.335 71.668,105.173C71.417,105.06 71.116,105 70.742,105C68.535,105 67.54,106.186 66.742,109L55,153C55,154.104 55.896,155 57,155L63,155L65.385,145.659L76.1,145.659L77.963,152.957C78.196,153.869 79.019,155 80.146,155L87.019,155L75.021,110.045ZM70.742,124.67L67.42,137.685L74.065,137.685L70.742,124.67ZM70.742,130.36L72.253,136.278L69.232,136.278L70.742,130.36Z" style="fill:rgb(59,99,99);fill-opacity:0.19;"/>
        </g>
        <g transform="matrix(1,0,0,1,3.00756,-2.84217e-14)">
            <path d="M63,121.999L63,105L57,105C55.896,105 55,105.896 55,107L55,153C55,154.104 55.896,155 57,155L63,155L63,138.001L79.414,154.415C80.194,155.195 81.462,155.195 82.242,154.415L86.485,150.172L66.313,130L86.485,109.828L82.242,105.585C81.462,104.805 80.194,104.805 79.414,105.585L63,121.999Z" style="fill:rgb(59,98,99);"/>
            <path d="M64.407,118.601L64.407,105C64.407,104.223 63.777,103.593 63,103.593L57,103.593C55.119,103.593 53.593,105.119 53.593,107L53.593,153C53.593,154.881 55.119,156.407 57,156.407L63,156.407C63.777,156.407 64.407,155.777 64.407,155L64.407,141.399L78.419,155.41C79.748,156.74 81.908,156.74 83.237,155.41L87.48,151.167C88.03,150.618 88.03,149.726 87.48,149.177L68.303,130L87.48,110.823C88.03,110.274 88.03,109.382 87.48,108.833L83.237,104.59C81.908,103.26 79.748,103.26 78.419,104.59L64.407,118.601ZM63,121.999L63,105L57,105C55.896,105 55,105.896 55,107L55,153C55,154.104 55.896,155 57,155L63,155L63,138.001L79.414,154.415C80.194,155.195 81.462,155.195 82.242,154.415L86.485,150.172L66.313,130L86.485,109.828L82.242,105.585C81.462,104.805 80.194,104.805 79.414,105.585L63,121.999Z" style="fill:rgb(59,99,99);fill-opacity:0.19;"/>
        </g>
    </g>
</svg>
